<svg width="13" height="14" fill="none" xmlns="http://www.w3.org/2000/svg"><path fill-rule="evenodd" clip-rule="evenodd" d="M2.527 6.86c-.359.007-.712.098-1.03.266a2.749 2.749 0 0 0-.855.628 1.838 1.838 0 0 1 .526-1.382c.371-.343.857-.53 1.36-.525V1.685L1.065.318h10.72c-.362.49-.691 1.004-.987 1.537-.278.51-.563 1.058-.848 1.627-.139-.31-.285-.599-.431-.873a2.775 2.775 0 0 0-.533-.687c-.21-.2-.459-.355-.731-.45a3.238 3.238 0 0 0-1.074-.156h-2.58v4.546h2.66l1.271-1.678h.059v4.369h-.059L7.255 6.86h-2.66v5.544H6.29c.457.002.913-.022 1.367-.074a2.5 2.5 0 0 0 .993-.318 3.01 3.01 0 0 0 .819-.739c.314-.409.592-.844.833-1.3.11.341.24.677.387 1.004.124.296.263.57.402.828.143.27.304.53.482.777.183.25.387.517.614.805H1.066l1.461-1.345V6.86Z" fill="#BB9C13"/></svg>