<svg width="12" height="14" fill="none" xmlns="http://www.w3.org/2000/svg"><path fill-rule="evenodd" clip-rule="evenodd" d="M2.448 7.104c-.36.006-.712.097-1.03.266a2.8 2.8 0 0 0-.862.636 1.86 1.86 0 0 1 .533-1.39c.371-.343.857-.53 1.36-.525V1.656L.986.288h10.74c-.36.49-.69 1.004-.986 1.538-.277.51-.562 1.057-.847 1.626a8.805 8.805 0 0 0-.446-.872 2.796 2.796 0 0 0-.54-.688 2.005 2.005 0 0 0-.731-.45 3.123 3.123 0 0 0-1.06-.156H4.531v4.835h2.652l1.271-1.678h.059V8.81h-.059L7.183 7.104H4.516v4.93l1.461 1.346H.965l1.461-1.346.022-4.93Z" fill="#BB9C13"/></svg>