<svg width="12" height="14" fill="none" xmlns="http://www.w3.org/2000/svg"><path fill-rule="evenodd" clip-rule="evenodd" d="M8.819 6.86a12.823 12.823 0 0 0-.14-1.774 8.955 8.955 0 0 0-.489-1.922 4.334 4.334 0 0 0-1-1.479 2.139 2.139 0 0 0-1.587-.628 2.28 2.28 0 0 0-1.147.28c-.329.19-.619.44-.855.74a4.54 4.54 0 0 0-.591 1.072c-.161.407-.288.828-.38 1.257-.088.43-.152.864-.19 1.3-.037.43-.059.821-.059 1.169 0 .708.058 1.415.176 2.114.096.646.288 1.274.57 1.862.233.512.575.967 1 1.331a2.393 2.393 0 0 0 2.923 0c.424-.367.765-.82 1.001-1.33.281-.59.476-1.217.578-1.863.123-.698.184-1.406.182-2.114l.008-.015Zm2.338 0a9.834 9.834 0 0 1-.358 2.683 6.685 6.685 0 0 1-1.053 2.159 5.073 5.073 0 0 1-1.731 1.478 5.34 5.34 0 0 1-2.412.525 5.332 5.332 0 0 1-2.491-.547 5.057 5.057 0 0 1-1.725-1.478A6.42 6.42 0 0 1 .372 9.514 10.53 10.53 0 0 1 .05 6.889c-.009-.921.11-1.84.351-2.727a6.514 6.514 0 0 1 1.052-2.159A4.973 4.973 0 0 1 3.193.576 5.42 5.42 0 0 1 5.602.06c.884-.026 1.76.17 2.55.57A4.899 4.899 0 0 1 9.872 2.15c.455.66.785 1.399.971 2.18.21.826.316 1.676.315 2.529Z" fill="#BB9C13"/></svg>