<svg width="11" height="14" fill="none" xmlns="http://www.w3.org/2000/svg"><path fill-rule="evenodd" clip-rule="evenodd" d="M10.763 9.72a3.822 3.822 0 0 1-.38 1.738 3.456 3.456 0 0 1-1.023 1.227c-.454.34-.967.59-1.512.74a6.814 6.814 0 0 1-1.85.243 4.77 4.77 0 0 1-1.292-.155 19.2 19.2 0 0 1-1.148-.355c-.365-.125-.73-.236-1.081-.347a3.613 3.613 0 0 0-1.089-.17 2.703 2.703 0 0 0-.774.133c-.21.058-.414.13-.614.214.35-.561.73-1.182 1.081-1.862.359-.658.667-1.343.921-2.048.073.506.203 1.002.387 1.478.17.428.417.82.731 1.153a3.29 3.29 0 0 0 1.162.74 4.651 4.651 0 0 0 1.658.273 4.58 4.58 0 0 0 .987-.11c.323-.063.63-.189.906-.37.268-.175.495-.408.665-.68.184-.315.276-.677.263-1.043.02-.46-.094-.915-.329-1.308a2.562 2.562 0 0 0-.877-.828 5.446 5.446 0 0 0-1.242-.532l-1.417-.407c-.483-.14-.958-.288-1.418-.458a4.747 4.747 0 0 1-1.25-.68 3.142 3.142 0 0 1-.876-1.094 3.786 3.786 0 0 1-.329-1.678 3.179 3.179 0 0 1 .373-1.582A3.04 3.04 0 0 1 2.36.872 4.304 4.304 0 0 1 3.741.207 6.245 6.245 0 0 1 5.32 0c.454-.003.906.037 1.352.118.387.082.73.17 1.06.267l.891.266c.27.074.547.111.826.11.164-.001.327-.031.482-.088.163-.053.317-.127.46-.222h.08a26.02 26.02 0 0 0-.927 1.612c-.289.582-.547 1.179-.775 1.789l-.058-.045a4.262 4.262 0 0 0-.373-1.116 3.37 3.37 0 0 0-.65-.902A2.92 2.92 0 0 0 5.575.946c-.28.001-.559.031-.833.09a2.41 2.41 0 0 0-.782.31 1.823 1.823 0 0 0-.584.598 1.723 1.723 0 0 0-.234.932c-.019.41.097.816.329 1.153.232.303.523.555.855.74.386.218.795.391 1.22.517l1.403.428c.482.148.95.318 1.41.496.441.178.85.428 1.213.739.36.304.655.682.862 1.109.238.52.35 1.09.329 1.663Z" fill="#BB9C13"/></svg>