<svg width="12" height="14" fill="none" xmlns="http://www.w3.org/2000/svg"><path fill-rule="evenodd" clip-rule="evenodd" d="M10.375 1.685V9.75c.013.124.04.246.08.363a.965.965 0 0 0 .162.28c.084.1.18.19.284.267-.095.473-.289.92-.568 1.312-.28.39-.64.717-1.054.957a6.326 6.326 0 0 1-3.259.74 7.946 7.946 0 0 1-1.622-.156 5.135 5.135 0 0 1-1.461-.532 3.605 3.605 0 0 1-1.103-.947 3.432 3.432 0 0 1-.658-1.397c.104-.075.198-.165.278-.266a.986.986 0 0 0 .168-.28c.038-.118.063-.24.073-.363.008-.165.008-.33 0-.495V1.685L.233.318h4.998L3.77 1.685v7.57a5.92 5.92 0 0 0 .139 1.323c.076.394.233.766.46 1.094.224.316.523.57.87.74.423.197.886.29 1.351.273.472.017.941-.082 1.367-.288.347-.188.645-.456.87-.784a3.08 3.08 0 0 0 .46-1.101c.088-.413.132-.834.131-1.257v-7.57L7.957.318h3.872l-1.454 1.367Z" fill="#BB9C13"/></svg>