<svg width="85" height="86" fill="none" xmlns="http://www.w3.org/2000/svg"><path fill-rule="evenodd" clip-rule="evenodd" d="M42.72 28.07c2.822 0 5.58.847 7.927 2.433A14.398 14.398 0 0 1 55.9 36.98a14.59 14.59 0 0 1 .812 8.34c-.55 2.799-1.91 5.37-3.904 7.39a14.216 14.216 0 0 1-7.305 3.95 14.114 14.114 0 0 1-8.243-.822 14.303 14.303 0 0 1-6.402-5.316 14.553 14.553 0 0 1-2.405-8.018c0-3.828 1.503-7.5 4.179-10.206a14.183 14.183 0 0 1 10.088-4.228Zm0-1.817a15.937 15.937 0 0 0-8.924 2.745 16.217 16.217 0 0 0-5.913 7.3 16.433 16.433 0 0 0-.909 9.392 16.315 16.315 0 0 0 4.402 8.32 16.011 16.011 0 0 0 8.229 4.445c3.117.625 6.347.302 9.283-.93a16.11 16.11 0 0 0 7.208-5.99 16.392 16.392 0 0 0 2.704-9.031c0-2.136-.416-4.25-1.224-6.223a16.265 16.265 0 0 0-3.486-5.274 16.052 16.052 0 0 0-5.217-3.522 15.904 15.904 0 0 0-6.152-1.232Zm8.527 20.82a5.871 5.871 0 0 0-.517-2.6 5.476 5.476 0 0 0-1.385-1.767 6.86 6.86 0 0 0-1.924-1.125 24.856 24.856 0 0 0-2.225-.788c-.756-.225-1.507-.467-2.225-.68a8.771 8.771 0 0 1-1.913-.84 4.468 4.468 0 0 1-1.363-1.204 3.02 3.02 0 0 1-.517-1.823 2.77 2.77 0 0 1 .367-1.485c.236-.38.553-.7.929-.94.38-.242.8-.41 1.24-.495.432-.09.872-.132 1.313-.13a4.79 4.79 0 0 1 1.88.355c.54.223 1.032.547 1.451.957.416.414.762.895 1.024 1.423.28.558.48 1.153.595 1.767l.094.062c.376-.934.801-1.847 1.274-2.735.45-.855.934-1.688 1.468-2.549l-.122-.062a4.04 4.04 0 0 1-.734.355 2.397 2.397 0 0 1-.762.135 4.72 4.72 0 0 1-1.318-.18l-1.402-.422a20.748 20.748 0 0 0-1.668-.416 10.876 10.876 0 0 0-2.136-.186c-.847 0-1.69.11-2.509.326a6.732 6.732 0 0 0-2.169.99 4.913 4.913 0 0 0-1.587 1.838 4.977 4.977 0 0 0-.52 2.383 5.917 5.917 0 0 0 .522 2.656 4.888 4.888 0 0 0 1.352 1.744c.597.46 1.261.825 1.968 1.08.735.27 1.48.512 2.225.726.746.214 1.513.434 2.225.653.712.22 3.015 1.61 3.337 2.144.368.624.548 1.344.517 2.07.024.58-.12 1.155-.411 1.655a3.436 3.436 0 0 1-1.057 1.086c-.44.275-.926.466-1.435.563a7.443 7.443 0 0 1-1.557.168 7.06 7.06 0 0 1-2.57-.422 5.127 5.127 0 0 1-1.852-1.204 5.633 5.633 0 0 1-1.173-1.823 9.741 9.741 0 0 1-.612-2.25 25.347 25.347 0 0 1-1.469 3.167 67.573 67.573 0 0 1-1.707 2.954c.315-.14.64-.254.973-.343.398-.12.81-.182 1.224-.186.584 0 1.166.09 1.724.265.556.174 1.112.36 1.713.563.6.202 1.185.382 1.819.562a7.7 7.7 0 0 0 2.047.26c.99.008 1.976-.121 2.93-.384a7.257 7.257 0 0 0 2.415-1.176 5.61 5.61 0 0 0 1.618-1.947c.412-.856.617-1.799.595-2.751v.006Zm26.937-6.078-.067-.061a.375.375 0 0 1-.256-.068.49.49 0 0 1-.256-.062h-.194a.474.474 0 0 0-.262-.067c-.06 0-.189-.068-.256-.068h-.255c-.067-.062-.134-.062-.262-.062h-1.112a8.042 8.042 0 0 0-3.298.789 8.132 8.132 0 0 0-2.692 2.081l-7.136 8.086a1.169 1.169 0 0 1-.256.326c2.836 1.688 6.83 1.497 9.088-1.125l.773-.85 1.869-2.15a7.88 7.88 0 0 1 1.546-1.372 34.034 34.034 0 0 1-4.116 12.542l.184.563a7.12 7.12 0 0 1 .517 1.688c.148.532.233 1.08.256 1.632a35.717 35.717 0 0 0 6.19-17.933 8.663 8.663 0 0 1 5.156 0 9.05 9.05 0 0 0-5.156-3.94l-.005.051Zm-8.415 20.038 8.415-20.038-8.415 20.038ZM51.414 74.189v-.068c-.067.068-.195.068-.261.135l.239-.067h.022Zm23.038-39.473a.442.442 0 0 1 .033.13l-.033-.13Zm-.034-.135a.533.533 0 0 0 .034.135l-.034-.135Zm-4.772-15.063a9.214 9.214 0 0 1 3.677-3.714c-5.673-1.126-11.413 3.072-10.957 9.06l.645 10.825v.394c3.22-.85 5.862-3.849 5.673-7.242l-.067-1.17-.194-2.87c-.022-.698.021-1.397.127-2.087a31.801 31.801 0 0 1 5.868 11.867c.176.055.35.12.518.197.555.242 1.093.526 1.607.85.45.32.907.647 1.29.973a35.715 35.715 0 0 0-8.187-17.083Zm-9.322 21.41c3.605-3.849 7.481-7.371 13.305-4.822.91.404 1.756.94 2.513 1.592a9.267 9.267 0 0 1 1.614 1.958 9.35 9.35 0 0 0-5.29.034 9.445 9.445 0 0 0-4.444 2.904l-6.318 7.208-.773.838a6.952 6.952 0 0 1-3.855 2.285 17.962 17.962 0 0 0 3.337-10.433c0-.529-.027-1.058-.072-1.575l-.017.011Zm6.986 23.284.067.068.195.191.194.197c.061.067.061.13.128.197l.195.197c.061.062.061.13.128.191l.189.197c0 .068.067.13.128.197.061.068.066.13.133.197.067.068.061.13.128.191.067.062.061.135.128.265s.067.13.128.197a.062.062 0 0 0 .042.059.06.06 0 0 0 .025.003 10.097 10.097 0 0 1 .9 6.454 9.634 9.634 0 0 0-3.67-3.714 34.995 34.995 0 0 1-16.953 8.35c.384-.456.706-.911 1.03-1.367.322-.456.555-1.047.839-1.564l.172-.524a32.371 32.371 0 0 0 11.68-5.998 10.824 10.824 0 0 0-2.063-.067l-2.837.129-1.112.135c-3.415.191-6.313-2.543-7.23-5.807h.45l10.696-.653a8.314 8.314 0 0 1 3.358.49 8.388 8.388 0 0 1 2.893 1.795l.04-.006Zm-21.558-4.09a7.01 7.01 0 0 0 4.544 1.288l1.113-.068 9.616-.573a9.513 9.513 0 0 1 3.802.54 9.597 9.597 0 0 1 3.29 2.003c.069.101.155.189.255.259a.243.243 0 0 1 .062.13.21.21 0 0 1 .128.067c.066.062.066.13.133.13a.136.136 0 0 0 .04.089.133.133 0 0 0 .088.04c0 .067.061.067.061.129l.134.135c0 .062.06.062.06.13l.129.129c.067.067.067.067.067.13h.066c0 .067 0 .129.061.129.007.05.03.095.067.129.061.068.061.135.128.135s.067.13.067.191c0 .062.061.068.128.13s0 .067.061.135c.061.067.067.062.067.13v-.068a.38.38 0 0 0 .067-.26v-.061a.238.238 0 0 0 .06-.191v-.327l.067-.067v-1.958l-.066-.062v-.394c0-.062-.061-.062-.061-.13v-.247l-.067-.068v-.258a.066.066 0 0 1-.047-.02.068.068 0 0 1-.02-.048v-.169c0-.067-.061-.067-.061-.13v-.129c-.128-.326-.195-.562-.323-.85-2.403-6.189-7.864-6.29-13.27-6.133A17.573 17.573 0 0 1 45.78 60.11l-.028.011ZM46.492.83A2.615 2.615 0 0 1 48.394 0a2.588 2.588 0 0 1 1.902.83c.495.503.772 1.182.772 1.891 0 .709-.277 1.389-.772 1.89-.51.501-1.192.781-1.902.781s-1.392-.28-1.902-.78a2.695 2.695 0 0 1-.772-1.89c0-.71.277-1.39.772-1.891ZM35.474 8.849c.263-.475.587-.914.962-1.306a34.96 34.96 0 0 0-16.947 8.283 9.413 9.413 0 0 1-3.61-3.713c-1.463 6.454 3.654 11.518 8.894 11.085l10.762-.653h.39c-.84-3.264-3.805-5.998-7.231-5.74l-1.113.068-2.836.13a7.38 7.38 0 0 1-2.064-.068 31.143 31.143 0 0 1 12.014-5.998.551.551 0 0 0-.317.067c.108-.176.194-.365.256-.563a18.7 18.7 0 0 1 .84-1.564V8.85ZM15.417 18.927a9.304 9.304 0 0 0-.328 2.52c.05.981.224 1.951.517 2.887 2.247 6.494 7.993 6.612 13.566 6.696a17.618 17.618 0 0 1 9.555-5.942 7.021 7.021 0 0 0-3.893-1.125h-1.112l-9.59.247a9.51 9.51 0 0 1-5.105-1.378 9.661 9.661 0 0 1-3.61-3.905Zm-.728 6.583a35.954 35.954 0 0 0-4.277 12.886c.575-.383 1.099-.84 1.557-1.362l1.858-2.15.778-.843C16.88 31.447 20.88 31.284 23.7 33a1.122 1.122 0 0 0-.256.326l-7.23 8.03a8.15 8.15 0 0 1-2.711 2.053 8.064 8.064 0 0 1-3.302.76H9.088c-.128 0-.195 0-.256-.067H8.57c-.062 0-.19-.068-.256-.068a.456.456 0 0 1-.256-.067h-.195a.469.469 0 0 0-.256-.068.386.386 0 0 0-.261-.068l-.061-.067a9.057 9.057 0 0 1-5.128-3.939 8.664 8.664 0 0 0 5.156.04 37.181 37.181 0 0 1 6.435-18.254c.015.552.098 1.1.244 1.632.097.581.265 1.148.501 1.688l.184.562.01.017ZM1.512 34.885a2.694 2.694 0 0 0-.772 1.89c0 .71.278 1.389.772 1.891a2.615 2.615 0 0 0 1.903.83 2.587 2.587 0 0 0 1.902-.83 2.67 2.67 0 0 0 .777-1.89 2.694 2.694 0 0 0-.777-1.891c-.51-.5-1.192-.78-1.902-.78s-1.393.28-1.903.78ZM45.48 7.52c6.39.385 12.55 2.55 17.798 6.257-.541.031-1.08.097-1.613.197-.757.212-1.5.47-2.225.777a32.268 32.268 0 0 0-12.459-4.17c.438.555.912 1.08 1.419 1.57l2.108 1.913.834.782c2.514 2.217 2.709 6.257 1.112 9.195-.128-.13-.256-.197-.322-.327l-8.07-7.197a8.329 8.329 0 0 1-2.049-2.731 8.418 8.418 0 0 1-.788-3.334V9.8a.517.517 0 0 1 .06-.259v-.456c0-.13.068-.197.068-.259v-.264a.374.374 0 0 0 .066-.259c0-.067.062-.13.062-.259 0-.13.077-.135.077-.169 0-.033.062-.196.062-.264v-.13a9.823 9.823 0 0 1 3.893-5.148 10.113 10.113 0 0 0 0 5.216l-.033-.028Zm9.177 21.799c3.2 2.955 5.21 7 5.645 11.36a7.089 7.089 0 0 0 1.546-4.923l-.06-1.125-.585-9.718c-.422-6.038 4.51-8.784 4.51-8.868 0-.085.134-.068.196-.068.06 0 .066-.062.127-.062-.06 0-.06-.067-.06-.067-11.202 0-11.497 6.64-11.32 13.454v.017Zm-3.843-5.21a7.193 7.193 0 0 1 2.224 3.876 17.444 17.444 0 0 0-10.317-3.376c-.517 0-1.035 0-1.54.067-3.794-3.646-7.27-7.568-4.745-13.504.41-.888.93-1.72 1.546-2.476a9.353 9.353 0 0 1 1.936-1.632 9.793 9.793 0 0 0 .023 5.335 9.699 9.699 0 0 0 2.813 4.512l7.23 6.393.84.782-.01.022ZM26.568 70.733c-.161.1-.33.187-.506.259-.543.214-1.101.389-1.669.523a7.273 7.273 0 0 1-1.607.197 34.228 34.228 0 0 0 17.715 6.257 9.052 9.052 0 0 1 0 5.216 9.507 9.507 0 0 0 3.893-5.149v-.135a.237.237 0 0 0 .061-.19v-.063a.23.23 0 0 0 .067-.197.472.472 0 0 0 .067-.258.41.41 0 0 0 .06-.26.5.5 0 0 1 .068-.264v-.259a.255.255 0 0 1 .06-.197v-1.17a8.404 8.404 0 0 0-.786-3.335 8.313 8.313 0 0 0-2.05-2.73l-8.02-7.18c-.128-.13-.256-.198-.317-.327-1.669 2.937-1.485 6.977 1.029 9.262l.9.726 2.131 1.879a15.43 15.43 0 0 1 1.352 1.57 32.313 32.313 0 0 1-12.448-4.175Zm-2.058-1.306c.712.456 1.357.912 2.064 1.306-.701-.405-1.385-.844-2.058-1.306h-.006ZM11.557 50.893a.375.375 0 0 0-.033-.253c0 .079.039.163.061.242l-.028.011Zm9.862 16.065c-.062.062-.062.062-.062.13 0 .067-.127.129-.194.129l-.195.197-.195.197c-.06.062-.128.062-.189.13l-.194.19c-.067 0-.128.068-.195.136-.067.067-.128.062-.195.129-.066.067-.128.13-.189.13s-.133.129-.195.129c-.06 0-.194.13-.26.13-.068 0-.129.134-.19.134l-.067.062h-.06a8.81 8.81 0 0 1-6.32.912 9.595 9.595 0 0 0 3.672-3.714A35.05 35.05 0 0 1 8.142 48.89l1.352.974c.517.326 1.034.562 1.552.85.174.054.345.12.511.196a32.855 32.855 0 0 0 5.93 11.884c.088-.692.11-1.391.066-2.087l-.195-2.87-.06-1.17c-.195-3.377 2.513-6.393 5.667-7.242 0 .135.067.264.067.394l.645 10.826a8.6 8.6 0 0 1-.488 3.391 8.525 8.525 0 0 1-1.77 2.922Zm3.893-21.54A7.159 7.159 0 0 0 24.2 49.74l.06 1.176.557 9.65a9.983 9.983 0 0 1-.546 3.842 9.9 9.9 0 0 1-1.968 3.332l-.256.26-.128.129a.233.233 0 0 1-.128.067v.062a.232.232 0 0 1-.128.067c0 .068-.066.068-.066.13s-.128.067-.128.13a.21.21 0 0 0-.128.067c-.067.067-.128.067-.128.13a.233.233 0 0 0-.134.067c-.06.062-.128.062-.128.13a.233.233 0 0 0-.128.067c-.066.062-.127.062-.127.13h-.05a.215.215 0 0 1-.128.061c0 .068-.067.068-.128.13-.062.061-.067 0-.128.067s-.067.067-.134.067a.194.194 0 0 1-.128.062c0 .068 0 .068.067.068.09-.01.18.013.256.062h.39l.06.067h.646v.068h.967v-.056h.712l.062-.068h.389v-.062h.256c.066 0 .066-.067.128-.067h.194a.205.205 0 0 1 .128-.062h.128a.068.068 0 0 1 .067-.068h.061c.323-.067.556-.197.84-.259 5.912-2.386 6.19-7.641 6.051-12.942a17.869 17.869 0 0 1-6.118-10.82l.028-.006Zm-14.4 18.468a2.653 2.653 0 0 0-1.492.437 2.7 2.7 0 0 0-1 1.202 2.736 2.736 0 0 0 .544 2.957 2.646 2.646 0 0 0 2.908.624 2.68 2.68 0 0 0 1.213-.982c.299-.441.462-.963.469-1.498a2.728 2.728 0 0 0-.758-1.925 2.67 2.67 0 0 0-1.884-.815Zm33.427-3.573c3.805 3.646 7.28 7.562 4.761 13.504a9.577 9.577 0 0 1-1.613 2.482 7.82 7.82 0 0 1-1.868 1.688 9.77 9.77 0 0 0-.066-5.363 9.672 9.672 0 0 0-2.882-4.501l-7.136-6.454-.84-.782a7.153 7.153 0 0 1-2.225-3.832 17.438 17.438 0 0 0 10.273 3.33c.556 0 1.068 0 1.59-.072h.006Zm-5.361 20.07c.497.515.776 1.206.776 1.925 0 .72-.279 1.41-.776 1.925-.497.5-1.169.781-1.87.781-.7 0-1.372-.281-1.868-.781a2.78 2.78 0 0 1-.771-1.925c0-.718.276-1.409.771-1.924a2.632 2.632 0 0 1 1.869-.781c.7 0 1.372.28 1.869.78Zm30.229-5.671c0-.529-.155-1.045-.445-1.485a2.649 2.649 0 0 0-1.186-.984 2.613 2.613 0 0 0-2.88.58 2.702 2.702 0 0 0-.573 2.913c.201.487.54.905.974 1.198.435.294.945.45 1.468.45a2.583 2.583 0 0 0 1.878-.772 2.64 2.64 0 0 0 .764-1.9ZM83.94 46.347c.37.374.621.85.723 1.368.102.519.05 1.056-.15 1.544-.2.489-.54.906-.974 1.2a2.62 2.62 0 0 1-2.935 0 2.667 2.667 0 0 1-.973-1.2 2.702 2.702 0 0 1 .572-2.912 2.633 2.633 0 0 1 1.869-.786 2.611 2.611 0 0 1 1.868.786Zm-9.41-30.65a2.653 2.653 0 0 1 1.491.437 2.7 2.7 0 0 1 1 1.203 2.736 2.736 0 0 1-.543 2.956 2.646 2.646 0 0 1-2.908.623 2.68 2.68 0 0 1-1.213-.981 2.729 2.729 0 0 1-.47-1.498 2.773 2.773 0 0 1 .775-1.91 2.71 2.71 0 0 1 1.868-.83Zm-58.267-5.413c.013-.526.179-1.036.477-1.466.298-.43.715-.763 1.199-.955a2.613 2.613 0 0 1 2.856.622 2.702 2.702 0 0 1 .543 2.904c-.201.485-.54.898-.973 1.189a2.62 2.62 0 0 1-1.46.446 2.627 2.627 0 0 1-1.89-.81 2.688 2.688 0 0 1-.752-1.93Zm8.248 24.038a7.212 7.212 0 0 1 3.866-2.25 17.945 17.945 0 0 0-3.338 10.437c0 .53 0 1.058.067 1.576-3.57 3.837-7.464 7.354-13.287 4.805a9.805 9.805 0 0 1-2.453-1.57 9.536 9.536 0 0 1-1.669-1.952 9.4 9.4 0 0 0 5.277-.013 9.492 9.492 0 0 0 4.457-2.857l6.38-7.315.7-.861Z" fill="#BB9C13"/></svg>