<svg width="20" height="20" fill="none" xmlns="http://www.w3.org/2000/svg"><path fill-rule="evenodd" clip-rule="evenodd" d="M7.96 2.004a34.761 34.761 0 0 1 3.26 4.885 22.338 22.338 0 0 0 4.82-2.508A8.226 8.226 0 0 0 10 1.75c-.704 0-1.388.088-2.04.254Zm9 3.565a23.85 23.85 0 0 1-5.04 2.659c.285.576.555 1.162.808 1.756a13.883 13.883 0 0 1 5.517.297 8.208 8.208 0 0 0-1.285-4.713Zm1.097 6.215a12.288 12.288 0 0 0-4.752-.364 34.449 34.449 0 0 1 1.513 5.278 8.256 8.256 0 0 0 3.239-4.914Zm-4.612 5.715a32.94 32.94 0 0 0-1.642-5.806 12.285 12.285 0 0 0-6.992 4.721A8.213 8.213 0 0 0 10 18.25c1.23 0 2.397-.27 3.445-.751Zm-9.719-2.141a13.79 13.79 0 0 1 7.501-5.066 33.148 33.148 0 0 0-.737-1.569 23.9 23.9 0 0 1-8.736 1.021 8.215 8.215 0 0 0 1.972 5.613Zm-1.79-7.105a22.414 22.414 0 0 0 7.837-.88 33.274 33.274 0 0 0-3.306-4.83 8.266 8.266 0 0 0-4.532 5.71Zm4.47-7.32A9.726 9.726 0 0 1 10 .25a9.735 9.735 0 0 1 7.733 3.812A9.71 9.71 0 0 1 19.75 10a9.757 9.757 0 0 1-5.112 8.578A9.71 9.71 0 0 1 10 19.75a9.72 9.72 0 0 1-6.7-2.666A9.725 9.725 0 0 1 .319 8.847 9.76 9.76 0 0 1 6.406.934Z" fill="#838383"/></svg>