<svg width="20" height="20" fill="none" xmlns="http://www.w3.org/2000/svg"><path d="M14 5a1 1 0 1 1 2 0 1 1 0 0 1-2 0Z" fill="#838383"/><path fill-rule="evenodd" clip-rule="evenodd" d="M10 5.25a4.75 4.75 0 1 0 0 9.5 4.75 4.75 0 0 0 0-9.5ZM6.75 10a3.25 3.25 0 1 1 6.5 0 3.25 3.25 0 0 1-6.5 0Z" fill="#838383"/><path fill-rule="evenodd" clip-rule="evenodd" d="M15.259.833a47.72 47.72 0 0 0-10.517 0C2.73 1.058 1.106 2.643.87 4.665a45.921 45.921 0 0 0 0 10.67c.237 2.022 1.861 3.607 3.873 3.832 3.467.387 7.05.387 10.517 0 2.012-.225 3.636-1.81 3.873-3.832a45.925 45.925 0 0 0 0-10.67c-.237-2.022-1.861-3.607-3.873-3.832Zm-10.35 1.49a46.22 46.22 0 0 1 10.183 0c1.33.15 2.396 1.2 2.55 2.517a44.421 44.421 0 0 1 0 10.32c-.154 1.318-1.22 2.368-2.55 2.516a46.217 46.217 0 0 1-10.183 0c-1.33-.148-2.396-1.198-2.55-2.516a44.421 44.421 0 0 1 0-10.32c.154-1.318 1.22-2.368 2.55-2.516Z" fill="#838383"/></svg>