<svg width="139" height="134" fill="none" xmlns="http://www.w3.org/2000/svg"><path fill-rule="evenodd" clip-rule="evenodd" d="M67.29 36.877c3.706 0 7.33 1.112 10.412 3.195a18.915 18.915 0 0 1 6.903 8.51 19.167 19.167 0 0 1 1.066 10.955 19.03 19.03 0 0 1-5.13 9.709 18.676 18.676 0 0 1-9.595 5.189 18.541 18.541 0 0 1-10.83-1.08 18.79 18.79 0 0 1-8.41-6.983 19.12 19.12 0 0 1-3.159-10.534c0-5.029 1.975-9.852 5.49-13.407a18.633 18.633 0 0 1 13.252-5.554Zm0-2.388a20.936 20.936 0 0 0-11.725 3.607 21.305 21.305 0 0 0-7.769 9.589 21.588 21.588 0 0 0-1.194 12.338 21.434 21.434 0 0 0 5.783 10.931 21.035 21.035 0 0 0 10.81 5.84c4.095.821 8.34.396 12.196-1.222a21.165 21.165 0 0 0 9.47-7.869 21.534 21.534 0 0 0 3.552-11.865c0-2.806-.546-5.583-1.608-8.175a21.366 21.366 0 0 0-4.58-6.929 21.09 21.09 0 0 0-6.854-4.626 20.892 20.892 0 0 0-8.082-1.619Zm11.2 27.352a7.714 7.714 0 0 0-.679-3.416 7.195 7.195 0 0 0-1.82-2.32 9.015 9.015 0 0 0-2.528-1.48 32.63 32.63 0 0 0-2.922-1.034c-.994-.296-1.98-.614-2.923-.895a11.522 11.522 0 0 1-2.514-1.101 5.867 5.867 0 0 1-1.79-1.582 3.966 3.966 0 0 1-.68-2.395 3.64 3.64 0 0 1 .483-1.952 3.91 3.91 0 0 1 1.22-1.234 4.696 4.696 0 0 1 1.63-.65 8.257 8.257 0 0 1 1.724-.17 6.293 6.293 0 0 1 2.47.465 6.017 6.017 0 0 1 1.907 1.257 7.11 7.11 0 0 1 1.344 1.87c.368.732.631 1.514.782 2.321l.124.081a36.846 36.846 0 0 1 1.674-3.592 54.552 54.552 0 0 1 1.929-3.349l-.161-.081a5.294 5.294 0 0 1-.965.465c-.322.114-.66.173-1 .178a6.2 6.2 0 0 1-1.732-.237l-1.842-.554c-.672-.2-1.41-.385-2.192-.547a14.29 14.29 0 0 0-2.806-.244c-1.112 0-2.219.145-3.295.429-1.018.26-1.983.7-2.85 1.3a6.453 6.453 0 0 0-2.084 2.415 6.54 6.54 0 0 0-.685 3.13 7.774 7.774 0 0 0 .687 3.489 6.42 6.42 0 0 0 1.776 2.292 9.547 9.547 0 0 0 2.586 1.419c.965.355 1.944.673 2.923.953.979.281 1.987.57 2.923.858.935.288 3.96 2.114 4.384 2.816.483.821.719 1.766.68 2.72a3.991 3.991 0 0 1-.541 2.174 4.513 4.513 0 0 1-1.389 1.427 5.486 5.486 0 0 1-1.885.739 9.782 9.782 0 0 1-2.046.222 9.274 9.274 0 0 1-3.376-.555 6.736 6.736 0 0 1-2.433-1.582 7.4 7.4 0 0 1-1.542-2.395 12.8 12.8 0 0 1-.803-2.957 33.318 33.318 0 0 1-1.93 4.162 89.038 89.038 0 0 1-2.243 3.881 8.708 8.708 0 0 1 1.28-.45 5.786 5.786 0 0 1 1.607-.245c.768 0 1.531.117 2.265.348.73.229 1.461.473 2.25.739.79.266 1.557.503 2.39.74.877.233 1.781.347 2.689.34 1.3.01 2.595-.159 3.85-.504a9.533 9.533 0 0 0 3.171-1.544 7.373 7.373 0 0 0 2.127-2.558 7.928 7.928 0 0 0 .782-3.615v.008Zm35.388-7.984-.088-.081a.492.492 0 0 1-.336-.09.644.644 0 0 1-.336-.08h-.256a.623.623 0 0 0-.343-.09c-.081 0-.249-.088-.336-.088h-.337c-.087-.081-.175-.081-.343-.081h-1.461c-1.5.033-2.977.386-4.333 1.036a10.683 10.683 0 0 0-3.537 2.734l-9.375 10.622c-.085.162-.2.308-.336.43 3.727 2.217 8.973 1.966 11.94-1.48l1.015-1.115 2.455-2.824a10.335 10.335 0 0 1 2.032-1.804 44.727 44.727 0 0 1-5.407 16.477l.241.74c.317.707.546 1.452.679 2.217.194.7.307 1.419.336 2.144a46.921 46.921 0 0 0 8.133-23.56 11.382 11.382 0 0 1 6.774 0 11.892 11.892 0 0 0-6.774-5.174l-.007.067ZM102.822 80.18l11.056-26.324-11.056 26.324ZM78.71 97.464v-.09c-.088.09-.256.09-.344.178l.315-.088h.029Zm30.265-51.857a.588.588 0 0 1 .044.17l-.044-.17Zm-.044-.177c.007.06.021.12.044.177l-.044-.177Zm-6.269-19.79a12.104 12.104 0 0 1 4.83-4.878c-7.453-1.479-14.994 4.036-14.395 11.901l.848 14.223v.517c4.23-1.116 7.701-5.056 7.453-9.513l-.088-1.538-.256-3.77c-.028-.917.028-1.835.168-2.742a41.768 41.768 0 0 1 7.709 15.59c.231.072.458.159.68.258.73.319 1.436.692 2.111 1.117.592.421 1.191.85 1.695 1.279a46.916 46.916 0 0 0-10.755-22.443ZM90.415 53.769c4.735-5.056 9.828-9.684 17.478-6.335a13.433 13.433 0 0 1 3.303 2.092c.82.755 1.533 1.62 2.119 2.572a12.284 12.284 0 0 0-6.949.045 12.41 12.41 0 0 0-5.838 3.814l-8.3 9.47-1.016 1.101a9.134 9.134 0 0 1-5.064 3.001 23.597 23.597 0 0 0 4.384-13.705c0-.695-.036-1.39-.095-2.07l-.022.015Zm9.178 30.59.087.088.256.251.256.259c.08.089.08.17.168.259l.256.258c.08.082.08.17.168.252l.248.259c0 .088.088.17.168.258.081.089.088.17.176.259.087.089.08.17.168.251.087.082.08.178.168.348.087.17.087.17.168.258 0 .012.002.023.007.033a.078.078 0 0 0 .048.045c.01.003.021.005.033.004a13.267 13.267 0 0 1 1.183 8.479 12.655 12.655 0 0 0-4.822-4.88 45.975 45.975 0 0 1-22.272 10.971c.505-.599.928-1.198 1.352-1.797.424-.598.73-1.374 1.103-2.055l.227-.687a42.528 42.528 0 0 0 15.344-7.88 14.199 14.199 0 0 0-2.71-.089l-3.727.17-1.461.178c-4.487.25-8.294-3.342-9.5-7.63h.593l14.05-.857c1.5-.09 3 .129 4.413.645a11.02 11.02 0 0 1 3.8 2.357l.052-.008ZM71.27 78.982a9.209 9.209 0 0 0 5.97 1.693l1.462-.089 12.633-.754a12.502 12.502 0 0 1 4.995.71c1.6.575 3.07 1.47 4.321 2.631.091.133.205.249.336.34a.313.313 0 0 1 .081.17c.064.01.124.04.168.09.088.08.088.17.175.17a.176.176 0 0 0 .168.17c0 .088.081.088.081.17l.175.177c0 .081.08.081.08.17l.168.17c.088.088.088.088.088.17h.088c0 .088 0 .17.08.17.009.065.04.125.088.17.08.088.08.177.168.177.088 0 .088.17.088.252 0 .08.08.088.168.17.087.08 0 .088.08.177s.088.081.088.17v-.089a.5.5 0 0 0 .087-.34v-.081a.31.31 0 0 0 .081-.251v-.43l.087-.088v-2.572l-.087-.082v-.517c0-.082-.081-.082-.081-.17v-.325l-.087-.09v-.34a.085.085 0 0 1-.062-.025.087.087 0 0 1-.026-.063v-.222c0-.088-.08-.088-.08-.17v-.17c-.168-.428-.256-.739-.424-1.116-3.157-8.131-10.332-8.264-17.434-8.058a23.087 23.087 0 0 1-13.686 7.91l-.037.015Zm.972-77.892a3.4 3.4 0 0 1 4.998 0 3.54 3.54 0 0 1 1.015 2.484 3.54 3.54 0 0 1-1.015 2.484 3.566 3.566 0 0 1-2.499 1.025c-.933 0-1.83-.368-2.499-1.025a3.54 3.54 0 0 1-1.014-2.484 3.54 3.54 0 0 1 1.014-2.484ZM57.768 11.625a8.285 8.285 0 0 1 1.264-1.715 45.927 45.927 0 0 0-22.264 10.881 12.366 12.366 0 0 1-4.742-4.878c-1.921 8.478 4.8 15.131 11.684 14.562l14.139-.857h.511c-1.103-4.288-4.998-7.88-9.499-7.54l-1.461.088-3.727.17a9.693 9.693 0 0 1-2.71-.088 40.913 40.913 0 0 1 15.782-7.88.724.724 0 0 0-.416.088c.142-.23.255-.48.336-.739.336-.68.68-1.367 1.103-2.055v-.037ZM31.42 24.865a12.22 12.22 0 0 0-.431 3.311c.065 1.289.294 2.563.68 3.793 2.951 8.53 10.5 8.685 17.82 8.796a23.145 23.145 0 0 1 12.554-7.806 9.223 9.223 0 0 0-5.115-1.478h-1.461l-12.597.325a12.493 12.493 0 0 1-6.708-1.812 12.694 12.694 0 0 1-4.742-5.13Zm-.957 8.649a47.232 47.232 0 0 0-5.62 16.928 10.354 10.354 0 0 0 2.047-1.79l2.44-2.823 1.023-1.109c2.989-3.408 8.242-3.622 11.947-1.367-.138.12-.252.265-.336.428l-9.5 10.549a10.71 10.71 0 0 1-3.56 2.697c-1.361.637-2.839.977-4.338 1h-1.461c-.169 0-.256 0-.337-.09h-.343c-.08 0-.248-.088-.336-.088a.6.6 0 0 1-.336-.09h-.256a.616.616 0 0 0-.336-.088.507.507 0 0 0-.344-.088l-.08-.09A11.898 11.898 0 0 1 14 52.32c2.202.705 4.562.723 6.774.052a48.846 48.846 0 0 1 8.454-23.98c.02.725.128 1.445.321 2.143.127.765.348 1.51.658 2.218l.241.74.015.022Zm-17.31 12.315a3.54 3.54 0 0 0-1.015 2.484 3.54 3.54 0 0 0 1.015 2.483 3.4 3.4 0 0 0 4.998 0 3.508 3.508 0 0 0 1.02-2.483 3.54 3.54 0 0 0-1.02-2.484 3.566 3.566 0 0 0-2.5-1.025c-.932 0-1.829.367-2.498 1.025ZM70.913 9.88a45.24 45.24 0 0 1 23.382 8.22c-.71.04-1.418.127-2.119.258-.994.278-1.97.619-2.922 1.02a42.392 42.392 0 0 0-16.368-5.477 20.701 20.701 0 0 0 1.864 2.062l2.769 2.514 1.096 1.027c3.303 2.913 3.558 8.22 1.461 12.08-.168-.17-.336-.26-.424-.43L69.05 21.701a10.943 10.943 0 0 1-2.69-3.589 11.061 11.061 0 0 1-1.036-4.38v-.858a.68.68 0 0 1 .08-.34v-.598c0-.17.088-.26.088-.34v-.348a.493.493 0 0 0 .087-.34c0-.089.08-.17.08-.34s.103-.177.103-.222c0-.044.08-.258.08-.347v-.17a12.905 12.905 0 0 1 5.115-6.764c-.6 2.244-.6 4.609 0 6.852l-.044-.036ZM82.97 38.518a23.494 23.494 0 0 1 7.416 14.925 9.313 9.313 0 0 0 2.032-6.468l-.08-1.479-.768-12.766c-.555-7.932 5.926-11.54 5.926-11.65 0-.111.175-.089.255-.089.08 0 .088-.081.168-.081-.08 0-.08-.089-.08-.089-14.716 0-15.103 8.723-14.87 17.675v.022Zm-5.05-6.845a9.45 9.45 0 0 1 2.923 5.093 22.917 22.917 0 0 0-13.554-4.435c-.68 0-1.359 0-2.024.088-4.983-4.79-9.55-9.942-6.233-17.74a15.279 15.279 0 0 1 2.032-3.254 12.288 12.288 0 0 1 2.542-2.143 12.864 12.864 0 0 0 .032 7.008 12.742 12.742 0 0 0 3.695 5.928l9.499 8.398 1.103 1.027-.014.03ZM46.07 92.925a4.285 4.285 0 0 1-.665.34c-.714.281-1.446.51-2.192.687-.692.165-1.4.252-2.112.259a44.964 44.964 0 0 0 23.273 8.22 11.893 11.893 0 0 1 0 6.853 12.493 12.493 0 0 0 5.115-6.764v-.178a.31.31 0 0 0 .08-.251v-.081a.302.302 0 0 0 .088-.259.617.617 0 0 0 .087-.34.538.538 0 0 0 .08-.34.654.654 0 0 1 .088-.347v-.34a.34.34 0 0 1 .08-.259v-1.538a11.039 11.039 0 0 0-1.033-4.381 10.92 10.92 0 0 0-2.693-3.588L55.73 81.186c-.168-.17-.336-.259-.417-.429-2.192 3.859-1.95 9.166 1.352 12.168l1.184.953 2.798 2.47c.637.646 1.23 1.335 1.776 2.062a42.452 42.452 0 0 1-16.353-5.485Zm-2.703-1.715c.935.599 1.782 1.197 2.71 1.715a41.679 41.679 0 0 1-2.703-1.715h-.008ZM26.349 66.86a.493.493 0 0 0-.044-.333c0 .104.051.215.08.318l-.036.015Zm12.955 21.105c-.08.08-.08.08-.08.17 0 .088-.168.17-.256.17l-.256.258-.256.26c-.08.08-.168.08-.248.17l-.256.25c-.088 0-.168.09-.256.178-.087.088-.168.081-.255.17-.088.089-.168.17-.249.17-.08 0-.175.17-.255.17-.08 0-.256.17-.344.17-.088 0-.168.177-.248.177l-.088.082h-.08a11.573 11.573 0 0 1-8.301 1.197 12.606 12.606 0 0 0 4.823-4.879 46.047 46.047 0 0 1-10.837-22.45l1.776 1.279c.68.429 1.36.74 2.039 1.116.229.073.453.16.672.259a43.164 43.164 0 0 0 7.789 15.612c.117-.909.146-1.827.088-2.742l-.256-3.77-.08-1.538c-.256-4.435 3.302-8.397 7.445-9.514 0 .178.088.348.088.518l.847 14.223c.088 1.513-.13 3.03-.64 4.455a11.2 11.2 0 0 1-2.326 3.839Zm5.115-28.298a9.406 9.406 0 0 0-1.462 5.677l.08 1.545.731 12.678c.094 1.714-.15 3.43-.717 5.047a13.006 13.006 0 0 1-2.585 4.378l-.336.34-.169.17a.306.306 0 0 1-.167.089v.081a.306.306 0 0 1-.169.089c0 .089-.087.089-.087.17 0 .081-.168.089-.168.17a.277.277 0 0 0-.168.089c-.088.088-.169.088-.169.17a.306.306 0 0 0-.175.088c-.08.082-.168.082-.168.17a.305.305 0 0 0-.168.09c-.088.08-.168.08-.168.17h-.066a.283.283 0 0 1-.168.08c0 .09-.087.09-.168.17-.08.082-.088 0-.168.09-.08.088-.088.088-.175.088a.254.254 0 0 1-.168.081c0 .089 0 .089.087.089a.521.521 0 0 1 .336.081h.512l.08.089h.848v.089h1.271v-.074h.936l.08-.089h.511v-.081h.337c.087 0 .087-.089.168-.089h.255a.27.27 0 0 1 .168-.081h.169a.088.088 0 0 1 .088-.089h.08c.423-.089.73-.259 1.103-.34 7.767-3.134 8.132-10.039 7.95-17.002a23.475 23.475 0 0 1-8.038-14.215l.037-.008ZM25.5 83.928a3.485 3.485 0 0 0-1.96.575 3.545 3.545 0 0 0-1.313 1.58 3.594 3.594 0 0 0 .714 3.883c.485.504 1.107.85 1.787.996.68.146 1.387.084 2.033-.176.645-.261 1.2-.71 1.593-1.29.394-.58.608-1.264.617-1.968A3.585 3.585 0 0 0 27.976 85a3.473 3.473 0 0 0-2.475-1.07Zm43.914-4.694c4.998 4.79 9.565 9.936 6.255 17.742a12.59 12.59 0 0 1-2.119 3.26 10.27 10.27 0 0 1-2.455 2.217c.63-2.309.6-4.752-.086-7.045a12.708 12.708 0 0 0-3.787-5.913l-9.374-8.48-1.104-1.027a9.397 9.397 0 0 1-2.922-5.034 22.91 22.91 0 0 0 13.495 4.377c.731 0 1.403 0 2.09-.097h.007Zm-7.043 26.368a3.638 3.638 0 0 1 1.019 2.529c0 .945-.366 1.852-1.02 2.528a3.459 3.459 0 0 1-2.454 1.026c-.92 0-1.804-.369-2.456-1.026a3.653 3.653 0 0 1-1.013-2.528c0-.944.364-1.851 1.013-2.529a3.459 3.459 0 0 1 2.456-1.026c.92 0 1.803.369 2.455 1.026Zm39.712-7.45c0-.695-.203-1.374-.584-1.952a3.485 3.485 0 0 0-1.558-1.293 3.434 3.434 0 0 0-2.005-.2 3.458 3.458 0 0 0-1.778.961 3.524 3.524 0 0 0-.95 1.798 3.55 3.55 0 0 0 .198 2.029c.263.641.708 1.19 1.278 1.576.571.385 1.242.591 1.929.591a3.413 3.413 0 0 0 2.467-1.015 3.488 3.488 0 0 0 1.003-2.496Zm19.356-37.265a3.52 3.52 0 0 1 .949 1.798 3.553 3.553 0 0 1-.197 2.028 3.504 3.504 0 0 1-1.279 1.576 3.44 3.44 0 0 1-3.856 0 3.508 3.508 0 0 1-1.278-1.576 3.545 3.545 0 0 1 .751-3.826 3.467 3.467 0 0 1 1.126-.764 3.426 3.426 0 0 1 3.784.764ZM109.077 20.62a3.487 3.487 0 0 1 1.96.575c.583.383 1.04.933 1.314 1.58a3.594 3.594 0 0 1-.714 3.884 3.508 3.508 0 0 1-1.788.995 3.478 3.478 0 0 1-2.033-.176 3.522 3.522 0 0 1-1.593-1.29 3.59 3.59 0 0 1-.617-1.968 3.645 3.645 0 0 1 1.018-2.508 3.559 3.559 0 0 1 2.453-1.092Zm-76.547-7.11a3.54 3.54 0 0 1 .627-1.927 3.477 3.477 0 0 1 1.576-1.254 3.434 3.434 0 0 1 1.998-.164 3.46 3.46 0 0 1 1.754.981 3.549 3.549 0 0 1 .714 3.815 3.502 3.502 0 0 1-1.279 1.562 3.442 3.442 0 0 1-1.919.586 3.451 3.451 0 0 1-2.481-1.064 3.563 3.563 0 0 1-.99-2.536ZM43.367 45.09a9.474 9.474 0 0 1 5.078-2.957 23.573 23.573 0 0 0-4.384 13.712c0 .695 0 1.39.087 2.07-4.69 5.042-9.806 9.662-17.456 6.313a12.878 12.878 0 0 1-3.222-2.062 12.522 12.522 0 0 1-2.192-2.565c2.266.656 4.669.65 6.932-.017a12.472 12.472 0 0 0 5.855-3.753l8.38-9.61.922-1.131ZM10.763 130.004a3.818 3.818 0 0 1-.38 1.737 3.447 3.447 0 0 1-1.023 1.227c-.454.34-.967.591-1.512.74a6.873 6.873 0 0 1-1.85.244 4.783 4.783 0 0 1-1.292-.156 19.89 19.89 0 0 1-1.148-.354c-.365-.126-.73-.237-1.081-.348a3.625 3.625 0 0 0-1.089-.17 2.686 2.686 0 0 0-.774.133 5.13 5.13 0 0 0-.614.214c.35-.561.73-1.182 1.081-1.862a14.76 14.76 0 0 0 .921-2.048c.073.506.203 1.002.387 1.478.17.428.417.82.731 1.154a3.29 3.29 0 0 0 1.162.739 4.642 4.642 0 0 0 1.658.273c.332-.001.663-.038.987-.111.323-.062.63-.188.906-.369.268-.175.495-.407.665-.68.184-.315.276-.677.263-1.043a2.343 2.343 0 0 0-.329-1.308 2.563 2.563 0 0 0-.877-.828 5.468 5.468 0 0 0-1.242-.532l-1.417-.407c-.483-.14-.958-.288-1.418-.458a4.752 4.752 0 0 1-1.25-.68 3.142 3.142 0 0 1-.876-1.094 3.786 3.786 0 0 1-.329-1.678 3.18 3.18 0 0 1 .373-1.582c.23-.433.561-.803.964-1.079a4.305 4.305 0 0 1 1.381-.666 6.277 6.277 0 0 1 1.578-.207c.454-.003.906.037 1.352.119.387.081.73.17 1.06.266l.891.266c.27.074.547.111.826.111.164-.002.327-.032.482-.089.163-.053.317-.127.46-.222h.08a26.03 26.03 0 0 0-.927 1.612 18.783 18.783 0 0 0-.775 1.789l-.058-.045a4.275 4.275 0 0 0-.373-1.116 3.372 3.372 0 0 0-.65-.902 2.92 2.92 0 0 0-.972-.637 2.872 2.872 0 0 0-1.14-.205c-.28.001-.559.03-.833.088a2.41 2.41 0 0 0-.782.311 1.72 1.72 0 0 0-.818 1.53c-.019.41.097.816.329 1.153.232.303.523.555.855.739.386.219.795.393 1.22.518l1.403.429c.482.147.95.317 1.41.495.441.178.85.428 1.213.739.36.305.655.682.862 1.109.238.52.35 1.09.329 1.663ZM21.819 127.143a12.81 12.81 0 0 0-.139-1.774 8.952 8.952 0 0 0-.49-1.922 4.338 4.338 0 0 0-1-1.479 2.13 2.13 0 0 0-1.586-.628c-.4-.009-.795.088-1.147.281a2.98 2.98 0 0 0-.855.739 4.548 4.548 0 0 0-.592 1.072c-.16.408-.288.828-.38 1.257-.088.429-.151.864-.19 1.301-.036.429-.058.82-.058 1.168 0 .708.058 1.416.175 2.114a6.54 6.54 0 0 0 .57 1.863 3.86 3.86 0 0 0 1.001 1.33c.42.324.933.5 1.461.5s1.042-.176 1.462-.5a3.96 3.96 0 0 0 1-1.33 6.775 6.775 0 0 0 .578-1.863c.123-.698.185-1.405.183-2.114l.007-.015Zm2.338 0a9.83 9.83 0 0 1-.358 2.683 6.682 6.682 0 0 1-1.052 2.159 5.072 5.072 0 0 1-1.732 1.478 5.34 5.34 0 0 1-2.411.525 5.328 5.328 0 0 1-2.492-.547 5.057 5.057 0 0 1-1.724-1.478 6.428 6.428 0 0 1-1.016-2.166 10.528 10.528 0 0 1-.321-2.624c-.01-.922.109-1.84.35-2.728a6.516 6.516 0 0 1 1.053-2.159 4.972 4.972 0 0 1 1.739-1.426 5.42 5.42 0 0 1 2.411-.518c.883-.026 1.76.17 2.55.569a4.907 4.907 0 0 1 1.717 1.523 6.48 6.48 0 0 1 .972 2.181c.21.826.316 1.675.314 2.528ZM36.375 121.969v8.065c.013.123.04.245.08.362a.97.97 0 0 0 .162.281c.084.099.18.189.284.266a3.42 3.42 0 0 1-.568 1.312c-.28.391-.64.718-1.054.957a6.314 6.314 0 0 1-3.259.739 7.96 7.96 0 0 1-1.622-.155 5.129 5.129 0 0 1-1.461-.532 3.609 3.609 0 0 1-1.103-.946 3.436 3.436 0 0 1-.658-1.397 1.42 1.42 0 0 0 .278-.266c.07-.084.128-.179.168-.281a1.58 1.58 0 0 0 .073-.363c.008-.165.008-.33 0-.495v-7.547l-1.462-1.368h4.998l-1.461 1.368v7.569c-.004.445.043.889.139 1.324.076.393.233.765.46 1.094.224.316.523.57.87.739.423.197.886.291 1.351.273.472.017.941-.082 1.367-.288.347-.188.645-.456.87-.784a3.08 3.08 0 0 0 .46-1.101c.088-.413.132-.834.131-1.257v-7.569l-1.461-1.368h3.872l-1.454 1.368ZM45.354 132.68a2.737 2.737 0 0 0 1.841-.739 4.262 4.262 0 0 0 1.162-2.307h.095c.156.766.401 1.511.73 2.218.15.307.316.606.498.895.185.299.39.586.614.857H39.837l1.462-1.323v-10.312l-1.462-1.368h4.991l-1.461 1.368v10.733l1.987-.022ZM66.937 127.144a11.89 11.89 0 0 0-.146-1.775 8.55 8.55 0 0 0-.497-1.914 4.436 4.436 0 0 0-.987-1.486 2.16 2.16 0 0 0-1.593-.628c-.4-.007-.794.089-1.147.281a3.036 3.036 0 0 0-.847.739 4.561 4.561 0 0 0-.6 1.072 8.01 8.01 0 0 0-.372 1.256c-.088.43-.151.864-.19 1.301-.039.384-.059.768-.059 1.154.001.708.057 1.415.168 2.114.1.645.292 1.273.57 1.863.237.512.581.966 1.009 1.33a2.392 2.392 0 0 0 2.922 0 3.96 3.96 0 0 0 1.001-1.33 7.049 7.049 0 0 0 .578-1.863c.123-.698.184-1.406.182-2.114h.008Zm2.33 0a9.845 9.845 0 0 1-.35 2.683 6.677 6.677 0 0 1-1.052 2.158 5.129 5.129 0 0 1-1.74 1.479 5.865 5.865 0 0 1-4.895 0 4.99 4.99 0 0 1-1.724-1.479 6.278 6.278 0 0 1-1.016-2.165 10.206 10.206 0 0 1-.329-2.676c-.007-.922.114-1.84.358-2.728a6.516 6.516 0 0 1 1.052-2.159 4.904 4.904 0 0 1 1.74-1.426 5.388 5.388 0 0 1 2.403-.518 5.33 5.33 0 0 1 2.558.569 4.897 4.897 0 0 1 1.717 1.523 6.48 6.48 0 0 1 .972 2.181c.206.836.31 1.695.307 2.558ZM73.448 127.387c-.36.006-.712.097-1.03.266-.326.154-.618.37-.863.636a1.858 1.858 0 0 1 .534-1.39c.37-.342.856-.53 1.359-.525v-4.435l-1.462-1.368h10.741c-.36.491-.69 1.005-.986 1.538-.278.51-.563 1.057-.848 1.626a8.788 8.788 0 0 0-.445-.872 2.801 2.801 0 0 0-.541-.687 1.994 1.994 0 0 0-.73-.451 3.125 3.125 0 0 0-1.06-.156H75.53v4.835h2.653l1.27-1.678h.06v4.369h-.06l-1.27-1.708h-2.668v4.931l1.462 1.345h-5.013l1.462-1.345.022-4.931ZM100.185 121.636l-1.133-1.057h4.991l-1.461 1.367v10.372l1.461 1.323h-4.99l1.461-1.323v-8.871l-3.705 10.164h-.687l-3.324-9.965h-.059V131.43c.02.297.076.59.168.873.088.287.232.554.424.783.215.254.485.454.79.584h-3.815a2.62 2.62 0 0 0 1.133-1.219 4.695 4.695 0 0 0 .329-1.878v-8.605l-1.462-1.367h5.356l-1.512 1.367 2.82 8.354 3.215-8.686ZM106.233 133.67l1.469-1.323v-10.401l-1.469-1.367h5.013l-1.483 1.367v10.401l1.483 1.323h-5.013ZM115.946 123.255h-.095v8.176c.02.296.074.588.16.872.09.287.234.553.424.784.218.25.487.45.789.584h-3.814a2.618 2.618 0 0 0 1.14-1.228 4.72 4.72 0 0 0 .329-1.877v-8.597l-1.462-1.368h5.283l-1.271 1.153 4.837 9.344v-7.392a4.615 4.615 0 0 0-.329-1.87 2.646 2.646 0 0 0-1.132-1.213h3.814a2.199 2.199 0 0 0-1.213 1.368 3.99 3.99 0 0 0-.168.88v10.844h-1.871l-5.421-10.46ZM128.528 127.143a2.31 2.31 0 0 0-1.031.266 2.75 2.75 0 0 0-.854.629 1.833 1.833 0 0 1 .526-1.383c.37-.343.856-.53 1.359-.524v-4.162l-1.462-1.368h10.72a14.3 14.3 0 0 0-.987 1.538c-.278.51-.563 1.057-.847 1.626-.139-.31-.285-.599-.432-.872a2.761 2.761 0 0 0-.533-.688 2.037 2.037 0 0 0-.731-.451 3.235 3.235 0 0 0-1.074-.155h-2.579v4.546h2.66l1.271-1.678h.058v4.369h-.058l-1.279-1.693h-2.659v5.544h1.695c.456.003.912-.022 1.366-.074a2.5 2.5 0 0 0 .994-.317c.315-.194.593-.444.818-.74a8.98 8.98 0 0 0 .833-1.301c.111.342.24.678.388 1.006.124.295.263.569.401.828.144.269.305.528.483.776.182.251.387.517.613.806h-11.121l1.462-1.346v-5.182Z" fill="#BB9C13"/></svg>