<svg width="26" height="26" fill="none" xmlns="http://www.w3.org/2000/svg"><path fill-rule="evenodd" clip-rule="evenodd" d="M16.273 3.623c.55-.094 1.167-.126 1.748-.028a5.254 5.254 0 0 1 2.75 1.38c.495.01.982-.087 1.412-.226a5.813 5.813 0 0 0 1.189-.543l.01-.006a.813.813 0 0 1 1.13 1.123c-.226.341-.538.95-.888 1.632l-.168.327c-.2.39-.406.784-.598 1.122a8.01 8.01 0 0 1-.38.614v.297a13.365 13.365 0 0 1-8.324 12.482 13.368 13.368 0 0 1-5.177.987 13.347 13.347 0 0 1-7.252-2.134.812.812 0 0 1 .54-1.49c.326.041.654.06.982.06a8.095 8.095 0 0 0 3.388-.754A5.27 5.27 0 0 1 3.81 15.3a.812.812 0 0 1 .169-.794A5.246 5.246 0 0 1 2.22 10.61V10.553a.813.813 0 0 1 .6-.784 5.243 5.243 0 0 1-.556-2.358c0-.928.242-1.84.703-2.646a.813.813 0 0 1 1.336-.108 11.798 11.798 0 0 0 7.589 4.258 5.255 5.255 0 0 1 2.776-4.773c.435-.233 1.012-.418 1.605-.52ZM4.055 11.799a3.63 3.63 0 0 0 2.711 2.345.813.813 0 0 1 .078 1.574c-.295.09-.597.152-.903.187a3.643 3.643 0 0 0 2.806 1.408.813.813 0 0 1 .487 1.451A9.717 9.717 0 0 1 5.39 20.6c1.154.37 2.365.56 3.59.559h.009A11.744 11.744 0 0 0 20.854 9.324v-.58c0-.197.071-.387.201-.536.075-.085.206-.283.39-.606.174-.306.366-.675.566-1.064l.037-.07a5.41 5.41 0 0 1-1.726.105.812.812 0 0 1-.51-.257 3.63 3.63 0 0 0-2.063-1.119c-.351-.059-.776-.045-1.202.028-.463.079-.865.217-1.113.35a3.629 3.629 0 0 0-1.818 4.051.813.813 0 0 1-.83 1.002 13.419 13.419 0 0 1-8.829-3.929 3.694 3.694 0 0 0-.068.712v.002a3.618 3.618 0 0 0 1.61 3.017.813.813 0 0 1-.473 1.488 5.196 5.196 0 0 1-.971-.119Z" fill="#838383"/></svg>